<svg xmlns="http://www.w3.org/2000/svg"  viewBox="0 0 512 512" width="64px" height="64px"><g data-name="42 Music Player"><rect width="332.76" height="490" x="89.62" y="11" fill="#cfdce5" rx="50.99" ry="50.99"/><path fill="#bcc6cc" d="M296.26,501H140.61a51,51,0,0,1-51-51V229.52A501.13,501.13,0,0,0,296.26,501Z"/><rect width="332.76" height="222" x="89.62" y="98.1" fill="#f7f5fb"/><path fill="#f17b89" d="M302.88,183.94l-74.06-42.76a19.7,19.7,0,0,0-29.55,17.06v85.52a19.7,19.7,0,0,0,29.55,17.06l74.06-42.76A19.69,19.69,0,0,0,302.88,183.94Z"/><path fill="#e4e3e8" d="M128,320.1H89.61V229.52A496.78,496.78,0,0,0,128,320.1Z"/><path d="M371.39,507H140.61a57.06,57.06,0,0,1-57-57V390.34a6,6,0,0,1,12,0V450a45.05,45.05,0,0,0,45,45H371.39a45,45,0,0,0,45-45V62a45,45,0,0,0-45-45H140.61a45,45,0,0,0-45,45V343.53a6,6,0,0,1-12,0V62a57.06,57.06,0,0,1,57-57H371.39a57,57,0,0,1,57,57V450A57.05,57.05,0,0,1,371.39,507Z"/><path d="M89.61,377.44a6,6,0,0,1-6-6v-9a6,6,0,0,1,12,0v9A6,6,0,0,1,89.61,377.44Z"/><path d="M422.38,326.1H89.62a6,6,0,0,1-6-6V98.1a6,6,0,0,1,6-6H422.38a6,6,0,0,1,6,6v222A6,6,0,0,1,422.38,326.1Zm-326.76-12H416.38v-210H95.62Z"/><path d="M219,269.5a25.79,25.79,0,0,1-25.7-25.74V158.24A25.7,25.7,0,0,1,231.82,136l74.06,42.76a25.71,25.71,0,0,1,0,44.52L231.82,266A25.67,25.67,0,0,1,219,269.5Zm0-125a13.73,13.73,0,0,0-13.7,13.72v85.52a13.7,13.7,0,0,0,20.55,11.87l74.06-42.76a13.71,13.71,0,0,0,0-23.74h0l-74.06-42.76A13.64,13.64,0,0,0,219,144.52Z"/><path d="M357,398.59H155a6,6,0,1,1,0-12H357a6,6,0,0,1,0,12Z"/><path d="M357,450.1H155a6,6,0,0,1,0-12H357a6,6,0,0,1,0,12Z"/></g></svg>